# xmcd
#
# Track frame offsets:
#	150
#	15365
#	29160
#	40835
#	53455
#	72806
#	89784
#	107185
#	122108
#	131434
#	148590
#	164406
#	179720
#	192201
#	210187
#	224629
#
# Disc length: 3283
#
# Revision: 2
# Processed by: cddbd v1.5.1PL0 Copyright (c) Steve Scherf et al.
# Submitted via: audiograbber 1.82.02
# Normalized: r1:DSETVAR1
#
DISCID=ed0cd110
DTITLE=Various Artist - The Best Of Country Rock II
DYEAR=2002
DGENRE=Country
TTITLE0=Poco - You Better Think Twice
TTITLE1=Flying Burrito Brothers, The - Devil In Disguise
TTITLE2=Byrds, The - You Ain't Goin' Nowhere
TTITLE3=New Riders of the Purple Sage - Panama Red
TTITLE4=Loggins and Messina - Danny's Song
TTITLE5=J.D. Souther - You're Only Lonely
TTITLE6=Nitty Gritty Dirt Band - An American Dream
TTITLE7=Rosanne Cash - Seven Year Ache
TTITLE8=Byrds, The - Ballad If Easy Rider
TTITLE9=Rick Nelson - Garden Party
TTITLE10=Marshall Tucker Band - Head It In A Love Song
TTITLE11=Amazing Rhythm Aces, The' - Third Rate Romance
TTITLE12=Randy Meisner - Hearts On Fire
TTITLE13=Billy Swan - I Can Help
TTITLE14=Michael Nesmith and The First National Band - Joanne
TTITLE15=Michael Murphey - Wildfire
EXTD=YEAR: 2002 ID3G: 2
EXTT0=
EXTT1=
EXTT2=
EXTT3=
EXTT4=
EXTT5=
EXTT6=
EXTT7=
EXTT8=
EXTT9=
EXTT10=
EXTT11=
EXTT12=
EXTT13=
EXTT14=
EXTT15=
PLAYORDER=
